Coordinates
version=1
nRows=17
nColumns=24
inDegrees=yes

Units are S.I. units (second, meters, Newtons, ...)
Angles are in degrees.

endheader
time	pelvis_tilt	pelvis_list	pelvis_rotation	pelvis_tx	pelvis_ty	pelvis_tz	hip_flexion_r	hip_adduction_r	hip_rotation_r	knee_angle_r	ankle_angle_r	subtalar_angle_r	mtp_angle_r	hip_flexion_l	hip_adduction_l	hip_rotation_l	knee_angle_l	ankle_angle_l	subtalar_angle_l	mtp_angle_l	lumbar_extension	lumbar_bending	lumbar_rotation
      1.10400000	      2.83022759	     -1.99936586	     -5.31999807	      0.16676000	      1.09441803	      0.28125874	     12.16768029	     -1.29065015	     -5.42905107	    -67.67249724	     -6.30383626	    -13.50587155	      3.64318008	      4.63077593	     -0.70657275	      0.42489971	    -13.06632412	      7.45167884	      1.14370668	      2.58821675	    -16.87483241	      0.87647719	      0.68268186
      1.10816667	      2.83611414	     -2.16982786	     -5.28690376	      0.17153939	      1.09538580	      0.28095533	     12.64933667	     -1.09308072	     -5.59511080	    -67.40384667	     -6.01028246	    -13.38321487	      3.63886008	      4.10743387	     -0.86409238	      0.37022994	    -12.60487182	      7.45826584	      1.26357416	      2.59222611	    -16.97764883	      1.10865602	      0.59159780
      1.11233333	      2.84734369	     -2.33217092	     -5.24502119	      0.17631067	      1.09629747	      0.28064322	     13.11360467	     -0.90727779	     -5.77049068	    -67.08466034	     -5.69870558	    -13.18350431	      3.64269319	      3.58330419	     -1.01304790	      0.31673862	    -12.14836886	      7.47803291	      1.39633200	      2.59776961	    -17.07912739	      1.33076007	      0.46717645
      1.11650000	      2.86720932	     -2.48881255	     -5.18875174	      0.18107331	      1.09718445	      0.28031861	     13.55186430	     -0.72621900	     -5.95056008	    -66.70485632	     -5.37244893	    -12.90739765	      3.65488011	      3.05319966	     -1.15463851	      0.27440823	    -11.69165119	      7.51238044	      1.53803469	      2.60588347	    -17.19376858	      1.55135085	      0.31138977
      1.12066667	      2.86913376	     -2.64881297	     -5.12646191	      0.18587510	      1.09798875	      0.27999395	     13.99268644	     -0.54284071	     -6.14974022	    -66.26949005	     -5.06283842	    -12.65026878	      3.67152557	      2.54632429	     -1.30429764	      0.21297440	    -11.24430418	      7.51889129	      1.66823610	      2.61130931	    -17.25188800	      1.77542225	      0.20568081
      1.12483333	      2.92829429	     -2.78509479	     -5.05484250	      0.19058868	      1.09882227	      0.27965564	     14.36739256	     -0.39031859	     -6.33663853	    -65.79368587	     -4.69294624	    -12.22072074	      3.70842836	      1.98538377	     -1.42108509	      0.18519164	    -10.79925968	      7.58527345	      1.82889176	      2.62498546	    -17.42199048	      1.97208712	     -0.01540075
      1.12900000	      2.93415959	     -2.93050852	     -4.97385295	      0.19535487	      1.09951955	      0.27931812	     14.78026932	     -0.22083258	     -6.53821821	    -65.25918610	     -4.35222174	    -11.82713114	      3.75387089	      1.48973970	     -1.55549911	      0.15357581	    -10.37247374	      7.62467737	      1.97882071	      2.63902532	    -17.51250420	      2.19064660	     -0.18494621
      1.13316667	      2.96166406	     -3.06148518	     -4.89190904	      0.20009775	      1.10019451	      0.27899085	     15.16037437	     -0.06734672	     -6.73510985	    -64.67857647	     -4.00422335	    -11.40102350	      3.81050221	      0.97382960	     -1.67314158	      0.12091753	     -9.94542516	      7.65947505	      2.12342817	      2.65388433	    -17.62880500	      2.38828534	     -0.35074283
      1.13733333	      2.99033534	     -3.19798210	     -4.79784291	      0.20484024	      1.10081112	      0.27864982	     15.52256091	      0.09176082	     -6.94211244	    -64.04410616	     -3.65993734	    -10.95633557	      3.87620605	      0.46469006	     -1.79829380	      0.09585458	     -9.53325161	      7.70761175	      2.27395309	      2.67018147	    -17.74682157	      2.59517229	     -0.51587563
      1.14150000	      3.01211809	     -3.31759614	     -4.70055762	      0.20959102	      1.10137397	      0.27832741	     15.87974930	      0.23606082	     -7.14706903	    -63.36213938	     -3.31538671	    -10.49050933	      3.95011607	     -0.03254961	     -1.90741938	      0.07539842	     -9.12510262	      7.75097800	      2.41804244	      2.68647310	    -17.85210212	      2.78448641	     -0.68466015
      1.14566667	      3.03240373	     -3.43128213	     -4.60253803	      0.21434686	      1.10184947	      0.27800843	     16.22766754	      0.37478056	     -7.34841576	    -62.63944272	     -2.97453136	    -10.02535362	      4.03867195	     -0.52348741	     -2.01150351	      0.05534285	     -8.72703324	      7.80480737	      2.56838914	      2.70566334	    -17.95757960	      2.96467130	     -0.86326902
      1.14983333	      3.05332258	     -3.53660773	     -4.49807008	      0.21909775	      1.10227142	      0.27769657	     16.56190073	      0.50612104	     -7.55244917	    -61.86830139	     -2.64683285	     -9.55526382	      4.12274290	     -1.00627573	     -2.10803650	      0.03960554	     -8.34303523	      7.86873730	      2.70953042	      2.72287163	    -18.05592698	      3.13753316	     -1.02124644
      1.15400000	      3.06856739	     -3.63600449	     -4.39284886	      0.22385884	      1.10263393	      0.27739917	     16.88733473	      0.63554896	     -7.75139816	    -61.04858373	     -2.32828610	     -9.09639930	      4.21612618	     -1.47978711	     -2.20052792	      0.02694657	     -7.96466611	      7.93186675	      2.85586196	      2.74125835	    -18.14935157	      3.30687023	     -1.19396429
      1.15816667	      3.08156247	     -3.71640795	     -4.28948736	      0.22863103	      1.10291879	      0.27712448	     17.20536919	      0.74704063	     -7.94233837	    -60.19217909	     -2.01376951	     -8.64182395	      4.31233424	     -1.94633098	     -2.27420614	      0.01313793	     -7.59447956	      8.00032273	      2.99491004	      2.75987047	    -18.23413630	      3.45101052	     -1.36092969
      1.16233333	      3.07194412	     -3.80924302	     -4.18165541	      0.23341397	      1.10313727	      0.27686844	     17.52582386	      0.88233083	     -8.12871200	    -59.27098336	     -1.73519032	     -8.23656142	      4.38678669	     -2.37974440	     -2.36669423	      0.00277744	     -7.24364317	      8.04979831	      3.12503673	      2.77332586	    -18.29666504	      3.60114267	     -1.48957135
      1.16650000	      3.09564974	     -3.86251137	     -4.07906926	      0.23819203	      1.10330487	      0.27661416	     17.81029656	      0.96647684	     -8.30784918	    -58.33913578	     -1.43030384	     -7.78832376	      4.50503705	     -2.85315982	     -2.41120637	     -0.00209733	     -6.87981114	      8.15224608	      3.27278548	      2.79594623	    -18.39360025	      3.72161765	     -1.70284927
      1.17066667	      3.08181470	     -3.92293523	     -3.97415562	      0.24300073	      1.10337546	      0.27638541	     18.11335878	      1.06980524	     -8.48009374	    -57.34618382	     -1.16516068	     -7.39435270	      4.62439110	     -3.27643241	     -2.47015676	     -0.00557910	     -6.53984421	      8.23933431	      3.40623806	      2.81848191	    -18.43945373	      3.84367724	     -1.87162413
